# xmcd
#
# Track frame offsets:
#	150
#	19488
#	35752
#	49583
#	66829
#	81447
#	97721
#	114205
#	131417
#	143628
#	158984
#	171140
#	186346
#	199874
#	214767
#	226659
#	237948
#	251515
#	264332
#	285437
#	299777
#	314341
#	330927
#	346561
#
# Disc length: 4775 seconds
#
# Revision: 0
# Processed by: cddbd v1.5.1PL2 Copyright (c) Steve Scherf et al.
# Submitted via: dBpowerAMP V4.0
#
DISCID=5312a518
DTITLE=Beto Quintanilla - Lo mas nuevo y lo Mejor
DYEAR=2005
DGENRE=Country
TTITLE0=Intro
TTITLE1=Osiel Cardenas
TTITLE2=Emilio Mireles
TTITLE3=Luis Martinez la campana
TTITLE4=Eleazar del fierro
TTITLE5=El Naco de Matamoros
TTITLE6=El Calabozo
TTITLE7=El Rojo
TTITLE8=Anastacio Pacheco
TTITLE9=Enrique Hernandez
TTITLE10=El Gordo Paz
TTITLE11=Se les pelo el cabezon
TTITLE12=El Jefe Belisario
TTITLE13=Israel Castillo
TTITLE14=Guero Estrada
TTITLE15=Gabino Ibarra
TTITLE16=El Colorado
TTITLE17=El plebe y el Cholo
TTITLE18=El gallo de Mil Palenques
TTITLE19=Juan Amaya
TTITLE20=El pinche Erick
TTITLE21=Andres Ibarra
TTITLE22=El Coyote
TTITLE23=Los Mendoza
EXTD=
EXTT0=
EXTT1=
EXTT2=
EXTT3=
EXTT4=
EXTT5=
EXTT6=
EXTT7=
EXTT8=
EXTT9=
EXTT10=
EXTT11=
EXTT12=
EXTT13=
EXTT14=
EXTT15=
EXTT16=
EXTT17=
EXTT18=
EXTT19=
EXTT20=
EXTT21=
EXTT22=
EXTT23=
PLAYORDER=
